<svg width="20" height="21" fill="none" xmlns="http://www.w3.org/2000/svg"><path d="M6.875 16.75v2.5m-3.75-17.5h7.5A1.25 1.25 0 0 1 11.875 3v16.094a.156.156 0 0 1-.156.156H1.875V3a1.25 1.25 0 0 1 1.25-1.25ZM12.5 8h4.375a1.25 1.25 0 0 1 1.25 1.25v10h-6.25V8.625A.625.625 0 0 1 12.5 8Z" stroke="#2E2E2E" stroke-width="1.5" stroke-linecap="round" stroke-linejoin="round"/><path d="M3.831 17.37a.625.625 0 1 1-.162-1.239.625.625 0 0 1 .162 1.239Zm0-3.125a.625.625 0 1 1-.162-1.239.625.625 0 0 1 .162 1.239Zm0-3.125A.625.625 0 1 1 3.67 9.88a.625.625 0 0 1 .162 1.239Zm0-3.125a.625.625 0 1 1-.162-1.24.625.625 0 0 1 .162 1.24Zm0-3.125a.625.625 0 1 1-.162-1.24.625.625 0 0 1 .162 1.24Zm3.125 9.375a.625.625 0 1 1-.162-1.239.625.625 0 0 1 .162 1.239Zm0-3.125a.625.625 0 1 1-.162-1.239.625.625 0 0 1 .162 1.239Zm0-3.125a.625.625 0 1 1-.162-1.24.625.625 0 0 1 .162 1.24Zm0-3.125a.625.625 0 1 1-.162-1.24.625.625 0 0 1 .162 1.24Zm3.125 12.5a.625.625 0 1 1-.162-1.239.625.625 0 0 1 .162 1.239Zm0-3.125a.625.625 0 1 1-.162-1.239.625.625 0 0 1 .162 1.239Zm0-3.125A.625.625 0 1 1 9.92 9.88a.625.625 0 0 1 .162 1.239ZM10.443 7.817a.625.625 0 0 0-.002-.883.625.625 0 0 0-.884-.002.625.625 0 0 0 .002.883c.245.244.64.245.884.002ZM10.081 4.87a.625.625 0 1 1-.162-1.24.625.625 0 0 1 .162 1.24Zm5.544 11.255a.626.626 0 1 0 0 1.25.626.626 0 0 0 0-1.25Zm0-3.125a.626.626 0 1 0 0 1.25.626.626 0 0 0 0-1.25Zm0-3.125a.625.625 0 1 0 0 1.25.625.625 0 0 0 0-1.25Zm-2.5 6.25a.626.626 0 1 0 0 1.25.626.626 0 0 0 0-1.25Zm0-3.125a.626.626 0 1 0 0 1.25.626.626 0 0 0 0-1.25Zm0-3.125a.625.625 0 1 0 0 1.25.625.625 0 0 0 0-1.25Z" fill="#2E2E2E"/></svg>