<svg width="20" height="21" viewBox="0 0 20 21" fill="none" xmlns="http://www.w3.org/2000/svg">
<path d="M6.16659 6.33301H3.83325C3.70064 6.33301 3.57347 6.38569 3.4797 6.47945C3.38593 6.57322 3.33325 6.7004 3.33325 6.83301V14.1663C3.33325 14.232 3.34618 14.297 3.37131 14.3577C3.39644 14.4183 3.43327 14.4735 3.4797 14.5199C3.52613 14.5663 3.58125 14.6032 3.64191 14.6283C3.70257 14.6534 3.76759 14.6663 3.83325 14.6663H6.16659C6.23225 14.6663 6.29726 14.6534 6.35793 14.6283C6.41859 14.6032 6.47371 14.5663 6.52014 14.5199C6.56657 14.4735 6.6034 14.4183 6.62852 14.3577C6.65365 14.297 6.66659 14.232 6.66659 14.1663V6.83301C6.66659 6.7004 6.61391 6.57322 6.52014 6.47945C6.42637 6.38569 6.29919 6.33301 6.16659 6.33301ZM16.1666 6.33301H13.8333C13.7006 6.33301 13.5735 6.38569 13.4797 6.47945C13.3859 6.57322 13.3333 6.7004 13.3333 6.83301V14.1663C13.3333 14.232 13.3462 14.297 13.3713 14.3577C13.3964 14.4183 13.4333 14.4735 13.4797 14.5199C13.5261 14.5663 13.5812 14.6032 13.6419 14.6283C13.7026 14.6534 13.7676 14.6663 13.8333 14.6663H16.1666C16.2322 14.6663 16.2973 14.6534 16.3579 14.6283C16.4186 14.6032 16.4737 14.5663 16.5201 14.5199C16.5666 14.4735 16.6034 14.4183 16.6285 14.3577C16.6537 14.297 16.6666 14.232 16.6666 14.1663V6.83301C16.6666 6.7004 16.6139 6.57322 16.5201 6.47945C16.4264 6.38569 16.2992 6.33301 16.1666 6.33301Z" stroke="#2E2E2E" stroke-width="1.5" stroke-linecap="round" stroke-linejoin="round"/>
<path d="M6.66659 10.5H13.3333M0.833252 12.5V8.5C0.833252 8.36739 0.88593 8.24021 0.979699 8.14645C1.07347 8.05268 1.20064 8 1.33325 8H2.83325C2.96586 8 3.09304 8.05268 3.18681 8.14645C3.28057 8.24021 3.33325 8.36739 3.33325 8.5V12.5C3.33325 12.6326 3.28057 12.7598 3.18681 12.8536C3.09304 12.9473 2.96586 13 2.83325 13H1.33325C1.20064 13 1.07347 12.9473 0.979699 12.8536C0.88593 12.7598 0.833252 12.6326 0.833252 12.5ZM19.1666 12.5V8.5C19.1666 8.36739 19.1139 8.24021 19.0201 8.14645C18.9264 8.05268 18.7992 8 18.6666 8H17.1666C17.034 8 16.9068 8.05268 16.813 8.14645C16.7193 8.24021 16.6666 8.36739 16.6666 8.5V12.5C16.6666 12.6326 16.7193 12.7598 16.813 12.8536C16.9068 12.9473 17.034 13 17.1666 13H18.6666C18.7992 13 18.9264 12.9473 19.0201 12.8536C19.1139 12.7598 19.1666 12.6326 19.1666 12.5Z" stroke="#2E2E2E" stroke-width="1.5" stroke-linecap="round" stroke-linejoin="round"/>
</svg>
