<svg width="20" height="21" viewBox="0 0 20 21" fill="none" xmlns="http://www.w3.org/2000/svg">
<g clip-path="url(#clip0_511_4165)">
<path d="M16.4285 1.21387H3.57139C3.19251 1.21387 2.82915 1.36438 2.56124 1.63229C2.29333 1.9002 2.14282 2.26356 2.14282 2.64244V18.3567C2.14282 18.7356 2.29333 19.099 2.56124 19.3669C2.82915 19.6348 3.19251 19.7853 3.57139 19.7853H16.4285C16.8074 19.7853 17.1708 19.6348 17.4387 19.3669C17.7066 19.099 17.8571 18.7356 17.8571 18.3567V2.64244C17.8571 2.26356 17.7066 1.9002 17.4387 1.63229C17.1708 1.36438 16.8074 1.21387 16.4285 1.21387Z" stroke="#2E2E2E" stroke-width="1.5" stroke-linecap="round" stroke-linejoin="round"/>
<path d="M14.2271 13.3571H13.0257C11.9757 13.3571 10.94 13.1129 9.99997 12.6429C9.06051 12.1731 8.02459 11.9286 6.97425 11.9286H5.77425M2.14282 5.5H17.8571M14.2857 12.6429C14.2857 13.2057 14.1748 13.763 13.9594 14.2829C13.7441 14.8029 13.4284 15.2754 13.0304 15.6733C12.6325 16.0713 12.16 16.387 11.64 16.6023C11.1201 16.8177 10.5628 16.9286 9.99997 16.9286C9.43716 16.9286 8.87986 16.8177 8.35989 16.6023C7.83993 16.387 7.36747 16.0713 6.96951 15.6733C6.57154 15.2754 6.25586 14.8029 6.04048 14.2829C5.8251 13.763 5.71425 13.2057 5.71425 12.6429C5.71425 11.5062 6.16578 10.4161 6.96951 9.6124C7.77324 8.80867 8.86332 8.35714 9.99997 8.35714C11.1366 8.35714 12.2267 8.80867 13.0304 9.6124C13.8342 10.4161 14.2857 11.5062 14.2857 12.6429Z" stroke="#2E2E2E" stroke-width="1.5" stroke-linecap="round" stroke-linejoin="round"/>
</g>
<defs>
<clipPath id="clip0_511_4165">
<rect width="20" height="20" fill="white" transform="translate(0 0.5)"/>
</clipPath>
</defs>
</svg>
