<svg width="78" height="32" fill="none" xmlns="http://www.w3.org/2000/svg"><g clip-path="url(#a)"><path d="M31 16C31 7.44 24.06.5 15.5.5 6.94.5 0 7.44 0 16c0 8.56 6.94 15.5 15.5 15.5C24.06 31.5 31 24.56 31 16Z" fill="#fff"/><path d="M8.288 13.238a1.09 1.09 0 0 1 .516.113l1.53.886a1.22 1.22 0 0 1 .516.889v1.764a1.23 1.23 0 0 1-.515.889l-1.531.885c-.16.078-.337.116-.516.11a1.059 1.059 0 0 1-.511-.11l-1.535-.885a1.226 1.226 0 0 1-.515-.89v-1.763a1.22 1.22 0 0 1 .515-.89l1.535-.885c.158-.08.334-.119.511-.113Zm0-.7a.005.005 0 0 0-.005-.006c-.3-.004-.595.068-.859.209l-1.535.896a1.923 1.923 0 0 0-.868 1.5V16.9a1.923 1.923 0 0 0 .868 1.5l1.535.885c.266.141.564.212.864.205.302.006.601-.064.868-.205l1.532-.885a1.924 1.924 0 0 0 .867-1.5v-1.764a1.924 1.924 0 0 0-.867-1.5l-1.532-.885a1.784 1.784 0 0 0-.862-.208.005.005 0 0 1-.006-.005ZM15.482 13.238c.177-.005.353.034.511.113l1.535.885a1.227 1.227 0 0 1 .512.89v1.764a1.235 1.235 0 0 1-.512.889l-1.535.885a1.08 1.08 0 0 1-.511.11 1.093 1.093 0 0 1-.515-.11l-1.535-.885a1.234 1.234 0 0 1-.511-.89v-1.763a1.228 1.228 0 0 1 .511-.89l1.535-.885c.16-.08.336-.118.515-.113Zm0-.7a.005.005 0 0 0-.005-.006c-.3-.004-.598.068-.863.209l-1.535.896a1.92 1.92 0 0 0-.864 1.5V16.9a1.92 1.92 0 0 0 .864 1.5l1.535.885c.267.14.566.211.868.205.3.007.598-.064.864-.205l1.535-.885a1.918 1.918 0 0 0 .864-1.5v-1.764a1.919 1.919 0 0 0-.864-1.5l-1.535-.885a1.764 1.764 0 0 0-.859-.208.005.005 0 0 1-.005-.005ZM22.672 13.238a1.09 1.09 0 0 1 .515.113l1.531.886a1.22 1.22 0 0 1 .516.889v1.764a1.227 1.227 0 0 1-.516.889l-1.53.885c-.16.078-.338.116-.516.11a1.059 1.059 0 0 1-.511-.11l-1.535-.885a1.226 1.226 0 0 1-.515-.89v-1.763a1.221 1.221 0 0 1 .515-.89l1.535-.885c.158-.08.334-.119.511-.113Zm0-.7a.005.005 0 0 0-.005-.006c-.3-.004-.595.068-.86.209l-1.534.896a1.923 1.923 0 0 0-.868 1.5V16.9a1.921 1.921 0 0 0 .868 1.5l1.535.885c.266.141.563.212.864.205.302.006.6-.064.868-.205l1.531-.885a1.924 1.924 0 0 0 .868-1.5v-1.764a1.923 1.923 0 0 0-.868-1.5l-1.53-.885a1.784 1.784 0 0 0-.863-.208.005.005 0 0 1-.006-.005ZM11.885 19.525c-.001-.002 0-.004.002-.004.178-.005.355.034.515.113l1.534.886a1.228 1.228 0 0 1 .512.889v1.764a1.241 1.241 0 0 1-.512.89l-1.534.892a1.26 1.26 0 0 1-1.027 0l-1.535-.886a1.242 1.242 0 0 1-.511-.889v-1.764a1.228 1.228 0 0 1 .511-.889l1.535-.886c.157-.078.332-.117.507-.113a.003.003 0 0 0 .003-.003Zm.002-.706a.003.003 0 0 1-.004.004c-.3-.006-.596.064-.86.204l-1.536.886a1.926 1.926 0 0 0-.864 1.503v1.764a1.923 1.923 0 0 0 .864 1.5l1.535.885c.266.14.564.211.864.205.303.006.601-.064.868-.205l1.535-.886a1.921 1.921 0 0 0 .864-1.499v-1.764a1.927 1.927 0 0 0-.864-1.503l-1.535-.893a1.78 1.78 0 0 0-.864-.204.004.004 0 0 0-.004.003ZM19.078 19.521c.177-.005.353.034.511.113l1.535.886a1.221 1.221 0 0 1 .515.889v1.764a1.235 1.235 0 0 1-.515.89l-1.535.885a1.11 1.11 0 0 1-.511.109 1.138 1.138 0 0 1-.515-.11l-1.532-.885a1.233 1.233 0 0 1-.515-.889v-1.764a1.22 1.22 0 0 1 .515-.89l1.532-.885c.16-.079.336-.118.515-.113Zm0-.705a1.78 1.78 0 0 0-.868.204l-1.532.886a1.932 1.932 0 0 0-.868 1.503v1.764a1.927 1.927 0 0 0 .868 1.5l1.532.885c.267.14.566.211.867.205.301.006.599-.064.865-.205l1.535-.886a1.926 1.926 0 0 0 .868-1.499v-1.764a1.93 1.93 0 0 0-.868-1.503l-1.535-.886a1.763 1.763 0 0 0-.864-.204ZM11.884 6.967c0-.007.005-.012.012-.012.174-.004.346.035.503.113l1.534.885a1.228 1.228 0 0 1 .512.89v1.763a1.235 1.235 0 0 1-.512.89l-1.53.892a1.26 1.26 0 0 1-1.027 0l-1.539-.868a1.234 1.234 0 0 1-.511-.889V8.867a1.228 1.228 0 0 1 .511-.889l1.535-.886c.155-.077.326-.116.499-.113a.013.013 0 0 0 .013-.012Zm.001-.706a.014.014 0 0 1-.014.013 1.764 1.764 0 0 0-.852.208l-1.535.886a1.92 1.92 0 0 0-.864 1.5v1.763a1.919 1.919 0 0 0 .864 1.5l1.535.885c.266.14.564.211.865.205.302.006.6-.064.867-.205l1.535-.885a1.92 1.92 0 0 0 .865-1.5V8.867a1.92 1.92 0 0 0-.865-1.5l-1.531-.91a1.785 1.785 0 0 0-.856-.208.014.014 0 0 0-.014.012ZM19.078 6.967c0-.007.005-.013.012-.013.173-.003.344.035.5.114l1.534.885a1.22 1.22 0 0 1 .515.89v1.763a1.227 1.227 0 0 1-.515.89l-1.535.885a1.059 1.059 0 0 1-.511.11 1.093 1.093 0 0 1-.515-.11l-1.532-.861a1.229 1.229 0 0 1-.515-.89V8.868a1.22 1.22 0 0 1 .515-.89l1.532-.885a1.09 1.09 0 0 1 .502-.113.012.012 0 0 0 .012-.012Zm0-.693c-.303-.005-.601.066-.868.208l-1.532.885a1.923 1.923 0 0 0-.868 1.5v1.764a1.923 1.923 0 0 0 .868 1.5l1.532.885c.267.14.566.211.867.204.301.007.599-.063.865-.204l1.535-.886a1.924 1.924 0 0 0 .868-1.5V8.868a1.924 1.924 0 0 0-.868-1.5l-1.535-.885a1.764 1.764 0 0 0-.864-.208Z" fill="#2E2E2E"/></g><path d="M42.547 20.224h3.68V22h-5.92V10.832h2.24v9.392Zm9.04 1.92c-.854 0-1.622-.187-2.304-.56a4.2 4.2 0 0 1-1.616-1.616c-.384-.693-.576-1.493-.576-2.4 0-.907.197-1.707.592-2.4a4.168 4.168 0 0 1 1.648-1.6c.693-.384 1.466-.576 2.32-.576.853 0 1.627.192 2.32.576a4.061 4.061 0 0 1 1.632 1.6c.405.693.608 1.493.608 2.4 0 .907-.208 1.707-.624 2.4a4.252 4.252 0 0 1-1.664 1.616c-.694.373-1.472.56-2.336.56Zm0-1.952c.405 0 .784-.096 1.136-.288a2.19 2.19 0 0 0 .864-.896c.213-.395.32-.875.32-1.44 0-.843-.224-1.488-.672-1.936a2.145 2.145 0 0 0-1.616-.688c-.64 0-1.179.23-1.616.688-.427.448-.64 1.093-.64 1.936s.208 1.493.624 1.952c.426.448.96.672 1.6.672Zm9.739-7.2c.661 0 1.243.133 1.744.4.501.256.896.592 1.184 1.008v-1.264h2.256v8.928c0 .821-.165 1.552-.496 2.192a3.622 3.622 0 0 1-1.488 1.536c-.661.384-1.461.576-2.4.576-1.259 0-2.293-.293-3.104-.88-.8-.587-1.253-1.387-1.36-2.4h2.224c.117.405.368.725.752.96.395.245.87.368 1.424.368.65 0 1.179-.197 1.584-.592.405-.384.608-.97.608-1.76v-1.376c-.288.416-.688.763-1.2 1.04-.501.277-1.077.416-1.728.416-.747 0-1.43-.192-2.048-.576-.619-.384-1.11-.923-1.472-1.616-.352-.704-.528-1.51-.528-2.416 0-.896.176-1.69.528-2.384.363-.693.848-1.227 1.456-1.6a3.918 3.918 0 0 1 2.064-.56Zm2.928 4.576c0-.544-.107-1.008-.32-1.392a2.189 2.189 0 0 0-.864-.896 2.265 2.265 0 0 0-1.168-.32c-.416 0-.8.101-1.152.304-.352.203-.64.501-.864.896-.213.384-.32.843-.32 1.376 0 .533.107 1.003.32 1.408.224.395.512.699.864.912.363.213.747.32 1.152.32.416 0 .805-.101 1.168-.304.363-.213.65-.512.864-.896.213-.395.32-.864.32-1.408Zm8.38 4.576c-.854 0-1.622-.187-2.304-.56a4.2 4.2 0 0 1-1.616-1.616c-.384-.693-.576-1.493-.576-2.4 0-.907.197-1.707.592-2.4a4.168 4.168 0 0 1 1.648-1.6c.693-.384 1.466-.576 2.32-.576.853 0 1.626.192 2.32.576a4.061 4.061 0 0 1 1.632 1.6c.405.693.608 1.493.608 2.4 0 .907-.208 1.707-.624 2.4a4.251 4.251 0 0 1-1.664 1.616c-.694.373-1.472.56-2.336.56Zm0-1.952c.405 0 .784-.096 1.136-.288a2.19 2.19 0 0 0 .864-.896c.213-.395.32-.875.32-1.44 0-.843-.224-1.488-.672-1.936a2.145 2.145 0 0 0-1.616-.688c-.64 0-1.179.23-1.616.688-.427.448-.64 1.093-.64 1.936s.208 1.493.624 1.952c.426.448.96.672 1.6.672Z" fill="#fff"/><defs><clipPath id="a"><path fill="#fff" transform="translate(0 .5)" d="M0 0h31v31H0z"/></clipPath></defs></svg>