<svg width="92" height="98" fill="none" xmlns="http://www.w3.org/2000/svg">
  <g filter="url(#a)">
    <path fill-rule="evenodd" clip-rule="evenodd"
      d="M50.363 77.281a1.02 1.02 0 0 1 .698-.448C66.33 74.436 78 61.37 78 45.613 78 28.153 63.673 14 46 14c-17.673 0-32 14.154-32 31.613 0 15.758 11.67 28.823 26.939 31.22.285.044.54.206.698.448l3.524 5.427a1 1 0 0 0 1.678 0l3.524-5.427Z"
      fill="currentColor" />
    <circle cx="46" cy="46" r="30.5" fill="#fff" stroke="currentColor" stroke-width="3" />
    <path
      d="M24.5 44.027v5.723c0 .982 1.65 2.115 4.425 3C42.748 57.385 68 54.085 68 49.75v-5.723c-6.862 5.618-36.675 5.58-43.5 0Zm3 5.723a.75.75 0 1 1-1.5 0V47.5a.75.75 0 0 1 1.5 0v2.25Zm5.25 1.5a.75.75 0 1 1-1.5 0V49a.75.75 0 0 1 1.5 0v2.25Zm6.75 1.5a.75.75 0 1 1-1.5 0V50.5a.75.75 0 0 1 1.5 0v2.25Zm7.5.375a.75.75 0 1 1-1.5 0v-2.25a.75.75 0 0 1 1.5 0v2.25Zm7.5-.375a.75.75 0 1 1-1.5 0V50.5a.75.75 0 0 1 1.5 0v2.25Zm6.75-1.5a.75.75 0 1 1-1.5 0V49a.75.75 0 0 1 1.5 0v2.25Zm5.25-1.5a.75.75 0 1 1-1.5 0V47.5a.75.75 0 0 1 1.5 0v2.25Z"
      fill="currentColor" />
    <path
      d="M29.922 44.845a44.998 44.998 0 0 1 5.498-1.095l-3.203-3.203a.752.752 0 1 1 1.066-1.064l4.02 4.02A76.31 76.31 0 0 1 45.5 43v-4.5a.75.75 0 1 1 1.5 0V43c2.74.013 5.476.173 8.197.48l4.02-4.02a.752.752 0 1 1 1.066 1.065L57.08 43.75c6.818.968 4.5 1.5 6.84.69 1.252-.442 4.08-1.627 4.08-2.94 0-2.19-8.25-5.25-21.75-5.25S24.5 39.31 24.5 41.5c0 1.553 3.878 2.94 5.422 3.345ZM24.5 52.292v4.957c0 2.018 6.593 4.545 17.25 5.13V59.5a.75.75 0 0 1 .75-.75H50a.75.75 0 0 1 .75.75v2.88C61.407 61.795 68 59.267 68 57.25v-4.957c-7.35 5.707-36.465 5.468-43.5 0ZM41 33.25h.75v1.627l1.5-.075V33.25h6v1.553l1.5.075V33.25h.75a.75.75 0 0 0 .75-.75v-3a.75.75 0 0 0-.75-.75H41a.75.75 0 0 0-.75.75v3a.75.75 0 0 0 .75.75ZM26 33.25h4.5v3.21c.48-.127.983-.247 1.5-.36 0-7.74.053-7.5-.112-7.74a.75.75 0 0 0-.638-.36c-.337 0 .038-.187-5.685 3.893A.749.749 0 0 0 26 33.25ZM62 33.25h4.5a.75.75 0 0 0 .435-1.358l-5.153-3.675a.75.75 0 0 0-1.282.345c-.045.128 0-.277 0 7.538.517.112 1.02.232 1.5.36v-3.21Z"
      fill="currentColor" />
  </g>
  <defs>
    <filter id="a" x=".111" y=".111" width="91.778" height="96.942" filterUnits="userSpaceOnUse"
      color-interpolation-filters="sRGB">
      <feFlood flood-opacity="0" result="BackgroundImageFix" />
      <feColorMatrix in="SourceAlpha" values="0 0 0 0 0 0 0 0 0 0 0 0 0 0 0 0 0 0 127 0"
        result="hardAlpha" />
      <feOffset />
      <feGaussianBlur stdDeviation="6.944" />
      <feComposite in2="hardAlpha" operator="out" />
      <feColorMatrix values="0 0 0 0 0.33809 0 0 0 0 0.382098 0 0 0 0 0.445833 0 0 0 0.3 0" />
      <feBlend in2="BackgroundImageFix" result="effect1_dropShadow_230_3397" />
      <feBlend in="SourceGraphic" in2="effect1_dropShadow_230_3397" result="shape" />
    </filter>
  </defs>
</svg>