<svg width="28" height="28" fill="none" xmlns="http://www.w3.org/2000/svg"><rect width="28" height="28" rx="14" fill="#DDF6D7"/><g clip-path="url(#a)"><path d="m20.193 18.646-1.053-1.053a.682.682 0 0 1-.108-.828 6.315 6.315 0 0 0 .786-4.272c-.452-2.726-2.7-4.88-5.443-5.223a6.352 6.352 0 0 0-7.105 7.106c.343 2.741 2.497 4.99 5.223 5.441a6.318 6.318 0 0 0 4.273-.785.682.682 0 0 1 .827.108l1.103 1.102a1.089 1.089 0 0 0 .773.32c.306 0 .613-.128.832-.384.38-.443.305-1.12-.108-1.532ZM9.465 14.268a4.164 4.164 0 0 1 4.803-4.803 4.16 4.16 0 0 1 3.392 3.393 4.163 4.163 0 0 1-4.803 4.803 4.16 4.16 0 0 1-3.392-3.393Z" fill="#1C8E00"/></g><defs><clipPath id="a"><path fill="#fff" transform="translate(7 7)" d="M0 0h14v14H0z"/></clipPath></defs></svg>